<mxfile host="app.diagrams.net" modified="2022-05-05T09:32:50.112Z" agent="5.0 (Windows)" etag="SeKV5xHmQort91hPXCdR" version="18.0.0" type="github">
  <diagram id="kgpKYQtTHZ0yAKxKKP6v" name="Page-1">
    <mxGraphModel dx="868" dy="440" grid="1" gridSize="10" guides="1" tooltips="1" connect="1" arrows="1" fold="1" page="1" pageScale="1" pageWidth="850" pageHeight="1100" math="0" shadow="0">
      <root>
        <mxCell id="0" />
        <mxCell id="1" parent="0" />
        <mxCell id="3nuBFxr9cyL0pnOWT2aG-1" value="&lt;&lt;UI&gt;&gt;" style="shape=umlLifeline;perimeter=lifelinePerimeter;container=1;collapsible=0;recursiveResize=0;rounded=0;shadow=0;strokeWidth=2;fillColor=#dae8fc;strokeColor=#6c8ebf;fontSize=16;" parent="1" vertex="1">
          <mxGeometry x="275" y="80" width="100" height="300" as="geometry" />
        </mxCell>
        <mxCell id="3nuBFxr9cyL0pnOWT2aG-2" value="" style="points=[];perimeter=orthogonalPerimeter;rounded=0;shadow=0;strokeWidth=2;fillColor=#dae8fc;strokeColor=#6c8ebf;fontSize=16;" parent="3nuBFxr9cyL0pnOWT2aG-1" vertex="1">
          <mxGeometry x="45" y="80" width="10" height="20" as="geometry" />
        </mxCell>
        <mxCell id="4RYpmid0m9nTcr_bTLxA-5" value="" style="html=1;points=[];perimeter=orthogonalPerimeter;fillColor=#dae8fc;strokeColor=#6c8ebf;fontSize=16;strokeWidth=2;" vertex="1" parent="3nuBFxr9cyL0pnOWT2aG-1">
          <mxGeometry x="45" y="120" width="10" height="20" as="geometry" />
        </mxCell>
        <mxCell id="4RYpmid0m9nTcr_bTLxA-6" value="" style="html=1;points=[];perimeter=orthogonalPerimeter;fillColor=#dae8fc;strokeColor=#6c8ebf;fontSize=16;strokeWidth=2;" vertex="1" parent="3nuBFxr9cyL0pnOWT2aG-1">
          <mxGeometry x="45" y="160" width="10" height="20" as="geometry" />
        </mxCell>
        <mxCell id="3nuBFxr9cyL0pnOWT2aG-5" value="Controller" style="shape=umlLifeline;perimeter=lifelinePerimeter;container=1;collapsible=0;recursiveResize=0;rounded=0;shadow=0;strokeWidth=2;fillColor=#dae8fc;strokeColor=#6c8ebf;fontSize=16;" parent="1" vertex="1">
          <mxGeometry x="455" y="80" width="100" height="300" as="geometry" />
        </mxCell>
        <mxCell id="3nuBFxr9cyL0pnOWT2aG-6" value="" style="points=[];perimeter=orthogonalPerimeter;rounded=0;shadow=0;strokeWidth=2;fillColor=#dae8fc;strokeColor=#6c8ebf;fontSize=16;" parent="3nuBFxr9cyL0pnOWT2aG-5" vertex="1">
          <mxGeometry x="45" y="160" width="10" height="80" as="geometry" />
        </mxCell>
        <mxCell id="3nuBFxr9cyL0pnOWT2aG-8" value="create new user account" style="verticalAlign=bottom;endArrow=block;shadow=0;strokeWidth=2;entryX=-0.1;entryY=0.005;entryDx=0;entryDy=0;entryPerimeter=0;fillColor=#dae8fc;strokeColor=#6c8ebf;fontSize=16;" parent="1" source="4RYpmid0m9nTcr_bTLxA-1" target="3nuBFxr9cyL0pnOWT2aG-2" edge="1">
          <mxGeometry relative="1" as="geometry">
            <mxPoint x="430" y="160" as="sourcePoint" />
            <mxPoint x="300" y="160" as="targetPoint" />
          </mxGeometry>
        </mxCell>
        <mxCell id="4RYpmid0m9nTcr_bTLxA-1" value="Admin" style="shape=umlLifeline;participant=umlActor;perimeter=lifelinePerimeter;whiteSpace=wrap;html=1;container=1;collapsible=0;recursiveResize=0;verticalAlign=top;spacingTop=36;outlineConnect=0;size=40;fillColor=#dae8fc;strokeColor=#6c8ebf;fontSize=16;strokeWidth=2;" vertex="1" parent="1">
          <mxGeometry x="160" y="80" width="20" height="300" as="geometry" />
        </mxCell>
        <mxCell id="4RYpmid0m9nTcr_bTLxA-2" value="" style="html=1;points=[];perimeter=orthogonalPerimeter;fillColor=#dae8fc;strokeColor=#6c8ebf;fontSize=16;strokeWidth=2;" vertex="1" parent="4RYpmid0m9nTcr_bTLxA-1">
          <mxGeometry x="5" y="80" width="10" height="130" as="geometry" />
        </mxCell>
        <mxCell id="4RYpmid0m9nTcr_bTLxA-3" value="Database" style="shape=umlLifeline;perimeter=lifelinePerimeter;whiteSpace=wrap;html=1;container=1;collapsible=0;recursiveResize=0;outlineConnect=0;fillColor=#dae8fc;strokeColor=#6c8ebf;fontSize=16;strokeWidth=2;" vertex="1" parent="1">
          <mxGeometry x="640" y="80" width="100" height="300" as="geometry" />
        </mxCell>
        <mxCell id="4RYpmid0m9nTcr_bTLxA-4" value="select account type" style="verticalAlign=bottom;endArrow=block;shadow=0;strokeWidth=2;fillColor=#dae8fc;strokeColor=#6c8ebf;fontSize=16;" edge="1" parent="1">
          <mxGeometry relative="1" as="geometry">
            <mxPoint x="175" y="201.03999999999996" as="sourcePoint" />
            <mxPoint x="320" y="200" as="targetPoint" />
          </mxGeometry>
        </mxCell>
        <mxCell id="4RYpmid0m9nTcr_bTLxA-7" value="enter user details" style="verticalAlign=bottom;endArrow=block;shadow=0;strokeWidth=2;entryX=-0.1;entryY=0.05;entryDx=0;entryDy=0;entryPerimeter=0;exitX=1;exitY=0.623;exitDx=0;exitDy=0;exitPerimeter=0;fillColor=#dae8fc;strokeColor=#6c8ebf;fontSize=16;" edge="1" parent="1" source="4RYpmid0m9nTcr_bTLxA-2" target="4RYpmid0m9nTcr_bTLxA-6">
          <mxGeometry relative="1" as="geometry">
            <mxPoint x="179.5" y="230.10000000000002" as="sourcePoint" />
            <mxPoint x="329" y="230.10000000000002" as="targetPoint" />
          </mxGeometry>
        </mxCell>
        <mxCell id="4RYpmid0m9nTcr_bTLxA-8" value="SQ01" style="shape=umlFrame;whiteSpace=wrap;html=1;fillColor=#dae8fc;strokeColor=#6c8ebf;fontSize=16;strokeWidth=2;" vertex="1" parent="1">
          <mxGeometry x="310" y="220" width="460" height="120" as="geometry" />
        </mxCell>
      </root>
    </mxGraphModel>
  </diagram>
</mxfile>
